<svg id="SvgjsSvg1001" width="288" height="288" xmlns="http://www.w3.org/2000/svg" version="1.1" xmlns:xlink="http://www.w3.org/1999/xlink" xmlns:svgjs="http://svgjs.com/svgjs"><defs id="SvgjsDefs1002"></defs><g id="SvgjsG1008"><svg xmlns="http://www.w3.org/2000/svg" version="1.0" viewBox="0 0 512 512" width="288" height="288"><g transform="matrix(.1 0 0 -.1 0 512)" fill="#ffffff" class="color000 svgShape"><path d="M2367 5049 c-678 -48 -1326 -381 -1769 -909 -172 -205 -351 -514-443 -764 -48 -131 -108 -371 -131 -521 -25 -164 -25 -541 -1 -705 86 -573
334 -1070 731 -1465 244 -242 527 -431 841 -559 161 -65 195 -72 250 -51 81
30 82 36 77 391 l-2 200 -72 -12 c-40 -7 -130 -13 -199 -14 -150 0 -243 20
-352 77 -78 41 -180 136 -209 194 -9 19 -37 77 -62 129 -54 113 -128 214 -191
261 -120 89 -145 111 -151 135 -11 44 15 59 104 59 68 0 87 -5 152 -36 95 -45
175 -119 244 -223 96 -145 183 -219 305 -256 109 -34 277 -23 399 25 39 16 41
19 56 86 19 86 56 164 106 228 l39 49 -62 7 c-99 11 -245 43 -347 76 -504 164
-750 546 -750 1164 0 263 68 468 214 647 l44 55 -21 69 c-31 104 -30 345 2
464 12 46 29 100 37 119 l14 34 83 -5 c139 -9 343 -91 540 -216 l78 -50 52 14
c105 28 273 54 428 66 234 17 537 -10 746 -66 l52 -14 78 50 c112 71 260 144
366 180 72 24 110 31 177 32 l84 1 18 -47 c10 -27 27 -94 39 -150 26 -128 22
-303 -9 -413 l-20 -69 39 -47 c81 -97 153 -239 191 -376 20 -69 22 -103 22
-298 0 -239 -13 -329 -70 -501 -137 -409 -455 -636 -1001 -714 l-83 -12 35
-42 c40 -49 87 -146 112 -231 15 -52 17 -118 20 -500 2 -291 7 -449 14 -467
31 -77 114 -81 282 -15 329 130 620 320 873 572 403 401 655 912 735 1495 22
157 17 526 -9 695 -43 273 -113 498 -237 750 -356 728 -1035 1242 -1836 1389
-218 40 -426 52 -652 35z" fill="#ffffff" class="color000 svgShape"></path><path d="M900 1407c0-19 21-37 42-37 24 0 35 29 17 41-21 13-59 11-59-4zM1015 1329c-12-18 4-57 25-64 43-14 56 32 18 59-26 19-35 20-43 5zM1123 1203c-24-9-15-61 13-80 25-16 27-16 40 1 22 31-19 92-53 79zM1237 1053c-14-13-7-50 12-67 24-22 65-17 69 7 7 35-58 83-81 60zM1413 943c-7-2-13-13-13-22 0-48 91-71 98-24 5 34-46 62-85 46zM1815 920c-22-24-14-47 20-56 28-7 75 18 75 39 0 38-65 50-95 17zM1611 896c-24-29 17-64 65-54 22 4 39 31 31 52-8 20-79 22-96 2z" fill="#ffffff" class="color000 svgShape"></path></g></svg></g></svg>